<?xml version="1.0" encoding="UTF-8" standalone="no"?>
<!-- Generator: Adobe Illustrator 19.0.0, SVG Export Plug-In . SVG Version: 6.00 Build 0)  -->

<svg
   xmlns:dc="http://purl.org/dc/elements/1.1/"
   xmlns:cc="http://creativecommons.org/ns#"
   xmlns:rdf="http://www.w3.org/1999/02/22-rdf-syntax-ns#"
   xmlns:svg="http://www.w3.org/2000/svg"
   xmlns="http://www.w3.org/2000/svg"
   xmlns:sodipodi="http://sodipodi.sourceforge.net/DTD/sodipodi-0.dtd"
   xmlns:inkscape="http://www.inkscape.org/namespaces/inkscape"
   version="1.1"
   id="Layer_1"
   x="0px"
   y="0px"
   viewBox="0 0 490.667 490.667"
   style="enable-background:new 0 0 490.667 490.667;"
   xml:space="preserve"
   sodipodi:docname="login.svg"
   inkscape:version="0.92.4 (unknown)"><metadata
   id="metadata47"><rdf:RDF><cc:Work
       rdf:about=""><dc:format>image/svg+xml</dc:format><dc:type
         rdf:resource="http://purl.org/dc/dcmitype/StillImage" /><dc:title></dc:title></cc:Work></rdf:RDF></metadata><defs
   id="defs45" /><sodipodi:namedview
   pagecolor="#ffffff"
   bordercolor="#666666"
   borderopacity="1"
   objecttolerance="10"
   gridtolerance="10"
   guidetolerance="10"
   inkscape:pageopacity="0"
   inkscape:pageshadow="2"
   inkscape:window-width="1366"
   inkscape:window-height="702"
   id="namedview43"
   showgrid="false"
   inkscape:zoom="0.48097794"
   inkscape:cx="245.3335"
   inkscape:cy="245.3335"
   inkscape:window-x="0"
   inkscape:window-y="0"
   inkscape:window-maximized="1"
   inkscape:current-layer="Layer_1" />
<g
   id="g10">
	<g
   id="g8">
		<g
   id="g6">
			<path
   d="M195.115,323.136c-4.16,4.16-4.16,10.923,0,15.083c2.091,2.069,4.821,3.115,7.552,3.115c2.731,0,5.461-1.045,7.531-3.115     l85.333-85.333c0.981-0.981,1.771-2.176,2.304-3.477c0.299-0.747,0.341-1.515,0.469-2.304c0.107-0.597,0.363-1.152,0.363-1.771     c0-0.811-0.299-1.536-0.469-2.283c-0.128-0.576-0.128-1.195-0.363-1.749c-0.555-1.344-1.365-2.539-2.368-3.563l-85.269-85.269     c-4.16-4.16-10.923-4.16-15.083,0c-4.16,4.16-4.16,10.923,0,15.083l67.136,67.115H10.667C4.779,234.667,0,239.445,0,245.333     S4.779,256,10.667,256h251.584L195.115,323.136z"
   id="path2"
   style="fill:#ffffff;fill-opacity:1" />
			<path
   d="M437.333,0H202.667c-29.397,0-53.333,23.936-53.333,53.333V160c0,5.888,4.779,10.667,10.667,10.667     s10.667-4.779,10.667-10.667V53.333c0-17.643,14.357-32,32-32h234.667c17.643,0,32,14.357,32,32v384c0,17.643-14.357,32-32,32     H202.667c-17.643,0-32-14.357-32-32V330.667c0-5.888-4.779-10.667-10.667-10.667s-10.667,4.779-10.667,10.667v106.667     c0,29.397,23.936,53.333,53.333,53.333h234.667c29.397,0,53.333-23.936,53.333-53.333v-384C490.667,23.936,466.731,0,437.333,0z"
   id="path4"
   style="fill:#ffffff;fill-opacity:1" />
		</g>
	</g>
</g>
<g
   id="g12">
</g>
<g
   id="g14">
</g>
<g
   id="g16">
</g>
<g
   id="g18">
</g>
<g
   id="g20">
</g>
<g
   id="g22">
</g>
<g
   id="g24">
</g>
<g
   id="g26">
</g>
<g
   id="g28">
</g>
<g
   id="g30">
</g>
<g
   id="g32">
</g>
<g
   id="g34">
</g>
<g
   id="g36">
</g>
<g
   id="g38">
</g>
<g
   id="g40">
</g>
</svg>