<?xml version="1.0" encoding="UTF-8" standalone="no"?>
<!-- Created with Inkscape (http://www.inkscape.org/) -->

<svg
   xmlns:dc="http://purl.org/dc/elements/1.1/"
   xmlns:cc="http://creativecommons.org/ns#"
   xmlns:rdf="http://www.w3.org/1999/02/22-rdf-syntax-ns#"
   xmlns:svg="http://www.w3.org/2000/svg"
   xmlns="http://www.w3.org/2000/svg"
   xmlns:sodipodi="http://sodipodi.sourceforge.net/DTD/sodipodi-0.dtd"
   xmlns:inkscape="http://www.inkscape.org/namespaces/inkscape"
   width="100mm"
   height="64mm"
   viewBox="0 0 100 64"
   version="1.1"
   id="svg8"
   inkscape:version="0.92.4 (unknown)"
   sodipodi:docname="mono.svg">
  <defs
     id="defs2" />
  <sodipodi:namedview
     id="base"
     pagecolor="#ffffff"
     bordercolor="#666666"
     borderopacity="1.0"
     inkscape:pageopacity="0.0"
     inkscape:pageshadow="2"
     inkscape:zoom="1.979899"
     inkscape:cx="267.95929"
     inkscape:cy="109.97343"
     inkscape:document-units="mm"
     inkscape:current-layer="layer1"
     showgrid="false"
     inkscape:window-width="1366"
     inkscape:window-height="702"
     inkscape:window-x="0"
     inkscape:window-y="0"
     inkscape:window-maximized="1" />
  <metadata
     id="metadata5">
    <rdf:RDF>
      <cc:Work
         rdf:about="">
        <dc:format>image/svg+xml</dc:format>
        <dc:type
           rdf:resource="http://purl.org/dc/dcmitype/StillImage" />
        <dc:title />
      </cc:Work>
    </rdf:RDF>
  </metadata>
  <g
     inkscape:label="Layer 1"
     inkscape:groupmode="layer"
     id="layer1"
     transform="translate(0,-233)">
    <g
       transform="matrix(1.0001596,0,0,1.0012845,0,-0.3814961)"
       id="layer1-3"
       inkscape:label="Layer 1">
      <g
         transform="translate(0,13.99881)"
         id="g1124">
        <g
           id="g1094"
           transform="matrix(0.64448871,0,0,0.64448871,-14.428617,138.8283)">
          <g
             transform="translate(22.120426,-62.716627)"
             id="g948">
            <path
               style="fill:#e8dbdb;fill-opacity:0;stroke:#ffffff;stroke-width:1.92361796;stroke-linecap:square;stroke-linejoin:miter;stroke-miterlimit:100;stroke-dasharray:none;stroke-opacity:0;paint-order:markers fill stroke"
               d="m 78.806318,189.73312 v 23.63165 l 68.900662,52.36557 z"
               id="path826"
               inkscape:connector-curvature="0" />
            <path
               style="opacity:1;fill:#ffffff;fill-opacity:0.00462963;fill-rule:evenodd;stroke:none;stroke-width:0.98503333;stroke-linecap:round;stroke-linejoin:round;stroke-miterlimit:4;stroke-dasharray:none;stroke-dashoffset:0;stroke-opacity:1;paint-order:normal"
               d="m 71.531083,224.70067 h 4.132461 c 0.386746,0 0.698098,0.31135 0.698098,0.6981 v 4.13246 c 0,0.38674 -0.311352,0.6981 -0.698098,0.6981 h -4.132461 c -0.386746,0 -0.698098,-0.31136 -0.698098,-0.6981 v -4.13246 c 0,-0.38675 0.311352,-0.6981 0.698098,-0.6981 z"
               id="rect843" />
            <path
               style="opacity:1;fill:#ffffff;fill-opacity:0.04166667;fill-rule:evenodd;stroke:none;stroke-width:0.98503333;stroke-linecap:round;stroke-linejoin:round;stroke-miterlimit:4;stroke-dasharray:none;stroke-dashoffset:0;stroke-opacity:1;paint-order:normal"
               d="m 81.027734,224.70067 h 4.132461 c 0.386746,0 0.698098,0.31135 0.698098,0.6981 v 4.13246 c 0,0.38674 -0.311352,0.6981 -0.698098,0.6981 h -4.132461 c -0.386746,0 -0.698098,-0.31136 -0.698098,-0.6981 v -4.13246 c 0,-0.38675 0.311352,-0.6981 0.698098,-0.6981 z"
               id="rect847" />
            <path
               style="opacity:1;fill:#ffffff;fill-opacity:0.00462963;fill-rule:evenodd;stroke:none;stroke-width:0.98503333;stroke-linecap:round;stroke-linejoin:round;stroke-miterlimit:4;stroke-dasharray:none;stroke-dashoffset:0;stroke-opacity:1;paint-order:normal"
               d="m 71.531083,242.37105 h 4.132461 c 0.386746,0 0.698098,0.31135 0.698098,0.6981 v 4.13246 c 0,0.38674 -0.311352,0.6981 -0.698098,0.6981 h -4.132461 c -0.386746,0 -0.698098,-0.31136 -0.698098,-0.6981 v -4.13246 c 0,-0.38675 0.311352,-0.6981 0.698098,-0.6981 z"
               id="rect849" />
            <path
               style="opacity:1;fill:#ffffff;fill-opacity:0.00462963;fill-rule:evenodd;stroke:none;stroke-width:0.98503333;stroke-linecap:round;stroke-linejoin:round;stroke-miterlimit:4;stroke-dasharray:none;stroke-dashoffset:0;stroke-opacity:1;paint-order:normal"
               d="m 81.027734,242.37105 h 4.132461 c 0.386746,0 0.698098,0.31135 0.698098,0.6981 v 4.13246 c 0,0.38674 -0.311352,0.6981 -0.698098,0.6981 h -4.132461 c -0.386746,0 -0.698098,-0.31136 -0.698098,-0.6981 v -4.13246 c 0,-0.38675 0.311352,-0.6981 0.698098,-0.6981 z"
               id="rect851" />
            <path
               style="opacity:1;fill:#ffffff;fill-opacity:0.00462963;fill-rule:evenodd;stroke:none;stroke-width:0.98503333;stroke-linecap:round;stroke-linejoin:round;stroke-miterlimit:4;stroke-dasharray:none;stroke-dashoffset:0;stroke-opacity:1;paint-order:normal"
               d="m 92.225282,242.37105 h 4.13246 c 0.386747,0 0.698099,0.31135 0.698099,0.6981 v 4.13246 c 0,0.38674 -0.311352,0.6981 -0.698099,0.6981 h -4.13246 c -0.386747,0 -0.698098,-0.31136 -0.698098,-0.6981 v -4.13246 c 0,-0.38675 0.311351,-0.6981 0.698098,-0.6981 z"
               id="rect853" />
            <path
               style="opacity:1;fill:#ffffff;fill-opacity:0.00462963;fill-rule:evenodd;stroke:none;stroke-width:0.98503333;stroke-linecap:round;stroke-linejoin:round;stroke-miterlimit:4;stroke-dasharray:none;stroke-dashoffset:0;stroke-opacity:1;paint-order:normal"
               d="m 101.72193,242.37105 h 4.13246 c 0.38674,0 0.69809,0.31135 0.69809,0.6981 v 4.13246 c 0,0.38674 -0.31135,0.6981 -0.69809,0.6981 h -4.13246 c -0.38675,0 -0.6981,-0.31136 -0.6981,-0.6981 v -4.13246 c 0,-0.38675 0.31135,-0.6981 0.6981,-0.6981 z"
               id="rect855" />
            <path
               style="opacity:1;fill:#ffffff;fill-opacity:0.00462963;fill-rule:evenodd;stroke:none;stroke-width:0.98503333;stroke-linecap:round;stroke-linejoin:round;stroke-miterlimit:4;stroke-dasharray:none;stroke-dashoffset:0;stroke-opacity:1;paint-order:normal"
               d="m 50.269925,242.37105 h 4.132461 c 0.386746,0 0.698098,0.31135 0.698098,0.6981 v 4.13246 c 0,0.38674 -0.311352,0.6981 -0.698098,0.6981 h -4.132461 c -0.386746,0 -0.698098,-0.31136 -0.698098,-0.6981 v -4.13246 c 0,-0.38675 0.311352,-0.6981 0.698098,-0.6981 z"
               id="rect857" />
            <path
               style="opacity:1;fill:#ffffff;fill-opacity:0.00462963;fill-rule:evenodd;stroke:none;stroke-width:0.98503333;stroke-linecap:round;stroke-linejoin:round;stroke-miterlimit:4;stroke-dasharray:none;stroke-dashoffset:0;stroke-opacity:1;paint-order:normal"
               d="m 59.766568,242.37105 h 4.132461 c 0.386747,0 0.698098,0.31135 0.698098,0.6981 v 4.13246 c 0,0.38674 -0.311351,0.6981 -0.698098,0.6981 h -4.132461 c -0.386746,0 -0.698098,-0.31136 -0.698098,-0.6981 v -4.13246 c 0,-0.38675 0.311352,-0.6981 0.698098,-0.6981 z"
               id="rect859" />
            <path
               style="opacity:1;fill:#ffffff;fill-opacity:0.00462963;fill-rule:evenodd;stroke:none;stroke-width:0.98503333;stroke-linecap:round;stroke-linejoin:round;stroke-miterlimit:4;stroke-dasharray:none;stroke-dashoffset:0;stroke-opacity:1;paint-order:normal"
               d="m 71.531083,233.77209 h 4.132461 c 0.386746,0 0.698098,0.31136 0.698098,0.6981 v 4.13246 c 0,0.38675 -0.311352,0.6981 -0.698098,0.6981 h -4.132461 c -0.386746,0 -0.698098,-0.31135 -0.698098,-0.6981 v -4.13246 c 0,-0.38674 0.311352,-0.6981 0.698098,-0.6981 z"
               id="rect869" />
            <path
               style="opacity:1;fill:#ffffff;fill-opacity:0.00462963;fill-rule:evenodd;stroke:none;stroke-width:0.98503333;stroke-linecap:round;stroke-linejoin:round;stroke-miterlimit:4;stroke-dasharray:none;stroke-dashoffset:0;stroke-opacity:1;paint-order:normal"
               d="m 81.027734,233.77209 h 4.132461 c 0.386746,0 0.698098,0.31136 0.698098,0.6981 v 4.13246 c 0,0.38675 -0.311352,0.6981 -0.698098,0.6981 h -4.132461 c -0.386746,0 -0.698098,-0.31135 -0.698098,-0.6981 v -4.13246 c 0,-0.38674 0.311352,-0.6981 0.698098,-0.6981 z"
               id="rect871" />
            <path
               style="opacity:1;fill:#ffffff;fill-opacity:0.00462963;fill-rule:evenodd;stroke:none;stroke-width:0.98503333;stroke-linecap:round;stroke-linejoin:round;stroke-miterlimit:4;stroke-dasharray:none;stroke-dashoffset:0;stroke-opacity:1;paint-order:normal"
               d="m 91.138597,233.77209 h 4.13246 c 0.386747,0 0.698099,0.31136 0.698099,0.6981 v 4.13246 c 0,0.38675 -0.311352,0.6981 -0.698099,0.6981 h -4.13246 c -0.386747,0 -0.698099,-0.31135 -0.698099,-0.6981 v -4.13246 c 0,-0.38674 0.311352,-0.6981 0.698099,-0.6981 z"
               id="rect873" />
            <path
               style="opacity:1;fill:#ffffff;fill-opacity:0.00462963;fill-rule:evenodd;stroke:none;stroke-width:0.98503333;stroke-linecap:round;stroke-linejoin:round;stroke-miterlimit:4;stroke-dasharray:none;stroke-dashoffset:0;stroke-opacity:1;paint-order:normal"
               d="m 60.711515,233.77209 h 4.13246 c 0.386747,0 0.698099,0.31136 0.698099,0.6981 v 4.13246 c 0,0.38675 -0.311352,0.6981 -0.698099,0.6981 h -4.13246 c -0.386747,0 -0.698099,-0.31135 -0.698099,-0.6981 v -4.13246 c 0,-0.38674 0.311352,-0.6981 0.698099,-0.6981 z"
               id="rect875" />
            <path
               style="opacity:1;fill:#ffffff;fill-opacity:0.00462963;fill-rule:evenodd;stroke:none;stroke-width:1.77736771;stroke-linecap:round;stroke-linejoin:round;stroke-miterlimit:4;stroke-dasharray:none;stroke-dashoffset:0;stroke-opacity:1;paint-order:normal"
               d="m 69.760011,251.25349 h 16.603803 c 0.386747,0 0.698099,0.31136 0.698099,0.6981 v 4.13246 c 0,0.38675 -0.311352,0.6981 -0.698099,0.6981 H 69.760011 c -0.386747,0 -0.698098,-0.31135 -0.698098,-0.6981 v -4.13246 c 0,-0.38674 0.311351,-0.6981 0.698098,-0.6981 z"
               id="rect879" />
            <path
               style="opacity:1;fill:#ffffff;fill-opacity:0.00462963;fill-rule:evenodd;stroke:none;stroke-width:0.98503333;stroke-linecap:round;stroke-linejoin:round;stroke-miterlimit:4;stroke-dasharray:none;stroke-dashoffset:0;stroke-opacity:1;paint-order:normal"
               d="m 93.406457,251.25349 h 4.132461 c 0.386746,0 0.698098,0.31136 0.698098,0.6981 v 4.13246 c 0,0.38675 -0.311352,0.6981 -0.698098,0.6981 h -4.132461 c -0.386746,0 -0.698098,-0.31135 -0.698098,-0.6981 v -4.13246 c 0,-0.38674 0.311352,-0.6981 0.698098,-0.6981 z"
               id="rect881" />
            <path
               style="opacity:1;fill:#ffffff;fill-opacity:0.00462963;fill-rule:evenodd;stroke:none;stroke-width:0.98503333;stroke-linecap:round;stroke-linejoin:round;stroke-miterlimit:4;stroke-dasharray:none;stroke-dashoffset:0;stroke-opacity:1;paint-order:normal"
               d="m 59.010621,251.25349 h 4.132461 c 0.386746,0 0.698098,0.31136 0.698098,0.6981 v 4.13246 c 0,0.38675 -0.311352,0.6981 -0.698098,0.6981 h -4.132461 c -0.386746,0 -0.698098,-0.31135 -0.698098,-0.6981 v -4.13246 c 0,-0.38674 0.311352,-0.6981 0.698098,-0.6981 z"
               id="rect883" />
            <path
               style="opacity:1;fill:#ffffff;fill-opacity:0.00462963;fill-rule:evenodd;stroke:none;stroke-width:0.98503333;stroke-linecap:round;stroke-linejoin:round;stroke-miterlimit:4;stroke-dasharray:none;stroke-dashoffset:0;stroke-opacity:1;paint-order:normal"
               d="m 104.55676,251.25349 h 4.13246 c 0.38674,0 0.6981,0.31136 0.6981,0.6981 v 4.13246 c 0,0.38675 -0.31136,0.6981 -0.6981,0.6981 h -4.13246 c -0.38675,0 -0.6981,-0.31135 -0.6981,-0.6981 v -4.13246 c 0,-0.38674 0.31135,-0.6981 0.6981,-0.6981 z"
               id="rect885" />
            <path
               style="opacity:1;fill:#ffffff;fill-opacity:0.00462963;fill-rule:evenodd;stroke:none;stroke-width:0.98503333;stroke-linecap:round;stroke-linejoin:round;stroke-miterlimit:4;stroke-dasharray:none;stroke-dashoffset:0;stroke-opacity:1;paint-order:normal"
               d="m 116.36851,251.25349 h 4.13246 c 0.38675,0 0.6981,0.31136 0.6981,0.6981 v 4.13246 c 0,0.38675 -0.31135,0.6981 -0.6981,0.6981 h -4.13246 c -0.38675,0 -0.6981,-0.31135 -0.6981,-0.6981 v -4.13246 c 0,-0.38674 0.31135,-0.6981 0.6981,-0.6981 z"
               id="rect887" />
            <path
               style="opacity:1;fill:#ffffff;fill-opacity:0.00462963;fill-rule:evenodd;stroke:none;stroke-width:0.98503333;stroke-linecap:round;stroke-linejoin:round;stroke-miterlimit:4;stroke-dasharray:none;stroke-dashoffset:0;stroke-opacity:1;paint-order:normal"
               d="m 47.387853,251.25349 h 4.13246 c 0.386747,0 0.698099,0.31136 0.698099,0.6981 v 4.13246 c 0,0.38675 -0.311352,0.6981 -0.698099,0.6981 h -4.13246 c -0.386747,0 -0.698099,-0.31135 -0.698099,-0.6981 v -4.13246 c 0,-0.38674 0.311352,-0.6981 0.698099,-0.6981 z"
               id="rect889" />
            <path
               style="fill:#ffffff;fill-opacity:0;stroke:none;stroke-width:0.26343632px;stroke-linecap:butt;stroke-linejoin:miter;stroke-opacity:1"
               d="m 0.26726951,284.97287 c 53.13712249,-31.51988 104.68811049,-29.04022 155.00000049,0 -57.673228,-22.72117 -108.622118,-20.00602 -155.00000049,0 z"
               id="path893"
               inkscape:connector-curvature="0"
               sodipodi:nodetypes="ccc" />
            <path
               inkscape:connector-curvature="0"
               id="path909"
               d="m 76.997961,189.73312 v 23.63165 l -68.90066,52.36557 z"
               style="fill:#3a9a3b;fill-opacity:1;stroke:#ffffff;stroke-width:1.92361796;stroke-linecap:square;stroke-linejoin:miter;stroke-miterlimit:100;stroke-dasharray:none;stroke-opacity:0;paint-order:markers fill stroke" />
            <path
               style="opacity:1;fill:#ffffff;fill-opacity:0.00462963;fill-rule:evenodd;stroke:none;stroke-width:0.98503333;stroke-linecap:round;stroke-linejoin:round;stroke-miterlimit:4;stroke-dasharray:none;stroke-dashoffset:0;stroke-opacity:1;paint-order:normal"
               d="m 36.021367,251.25349 h 4.132461 c 0.386746,0 0.698098,0.31136 0.698098,0.6981 v 4.13246 c 0,0.38675 -0.311352,0.6981 -0.698098,0.6981 h -4.132461 c -0.386746,0 -0.698098,-0.31135 -0.698098,-0.6981 v -4.13246 c 0,-0.38674 0.311352,-0.6981 0.698098,-0.6981 z"
               id="rect920" />
          </g>
          <g
             aria-label="Beka T"
             transform="scale(0.92851726,1.0769859)"
             style="font-style:italic;font-variant:normal;font-weight:normal;font-stretch:normal;font-size:6.17085934px;line-height:2;font-family:Helvetica;-inkscape-font-specification:'Helvetica Italic';font-variant-ligatures:normal;font-variant-caps:normal;font-variant-numeric:normal;font-feature-settings:normal;text-align:start;letter-spacing:0px;word-spacing:0px;writing-mode:lr-tb;text-anchor:start;fill:#000000;fill-opacity:1;stroke:none;stroke-width:0.15427147"
             id="text924">
            <path
               d="m 107.38288,177.5806 h 0.0677 c 0.0142,0 0.0247,-0.004 0.0327,-0.0126 0.007,-0.008 0.0115,-0.0185 0.0115,-0.0302 0,-0.0181 -0.008,-0.029 -0.0274,-0.0364 0.0136,-0.006 0.0208,-0.0175 0.0208,-0.0327 0,-0.0109 -0.004,-0.0206 -0.0119,-0.0276 -0.008,-0.007 -0.0181,-0.0105 -0.0325,-0.0105 h -0.0609 z m 0.0191,-0.0854 v -0.0477 h 0.037 c 0.0107,0 0.0167,0.001 0.0218,0.005 0.005,0.004 0.008,0.0103 0.008,0.0185 0,0.008 -0.003,0.0144 -0.008,0.0185 -0.005,0.004 -0.0111,0.005 -0.0218,0.005 z m 0,0.0685 v -0.0516 h 0.0467 c 0.009,0 0.0154,0.002 0.02,0.007 0.005,0.005 0.007,0.0113 0.007,0.0187 0,0.007 -0.002,0.0138 -0.007,0.0185 -0.005,0.005 -0.0107,0.007 -0.02,0.007 z"
               style="font-style:normal;font-variant:normal;font-weight:normal;font-stretch:normal;font-size:0.20569536px;font-family:Helvetica;-inkscape-font-specification:Helvetica;fill:#ffffff;fill-opacity:1;stroke-width:0.15427147"
               id="path898" />
            <path
               d="m 107.60955,177.53246 c 0,-0.0164 -0.001,-0.0263 -0.004,-0.0343 -0.007,-0.0177 -0.0235,-0.0284 -0.0436,-0.0284 -0.03,0 -0.0494,0.023 -0.0494,0.0584 0,0.0354 0.0187,0.0572 0.049,0.0572 0.0247,0 0.0418,-0.014 0.0461,-0.0374 h -0.0173 c -0.005,0.0142 -0.0144,0.0216 -0.0282,0.0216 -0.0109,0 -0.0202,-0.005 -0.0259,-0.014 -0.004,-0.006 -0.006,-0.0123 -0.006,-0.023 z m -0.079,-0.014 c 0.001,-0.02 0.0136,-0.0329 0.0309,-0.0329 0.0169,0 0.0298,0.014 0.0298,0.0317 0,4.1e-4 0,8.3e-4 -2e-4,0.001 z"
               style="font-style:normal;font-variant:normal;font-weight:normal;font-stretch:normal;font-size:0.20569536px;font-family:Helvetica;-inkscape-font-specification:Helvetica;fill:#ffffff;fill-opacity:1;stroke-width:0.15427147"
               id="path900" />
            <path
               d="m 107.64753,177.43065 h -0.0171 v 0.14995 h 0.0171 v -0.042 l 0.0167,-0.0165 0.0364,0.0584 h 0.0212 l -0.044,-0.0706 0.0374,-0.0372 h -0.022 l -0.0457,0.0457 z"
               style="font-style:normal;font-variant:normal;font-weight:normal;font-stretch:normal;font-size:0.20569536px;font-family:Helvetica;-inkscape-font-specification:Helvetica;fill:#ffffff;fill-opacity:1;stroke-width:0.15427147"
               id="path902" />
            <path
               d="m 107.83142,177.57052 c -0.002,4.1e-4 -0.003,4.1e-4 -0.004,4.1e-4 -0.006,0 -0.009,-0.003 -0.009,-0.008 v -0.0634 c 0,-0.0191 -0.014,-0.0294 -0.0405,-0.0294 -0.0156,0 -0.0286,0.005 -0.0358,0.0125 -0.005,0.006 -0.007,0.0117 -0.007,0.0224 h 0.0173 c 0.001,-0.0132 0.009,-0.0191 0.0253,-0.0191 0.0154,0 0.0241,0.006 0.0241,0.016 v 0.005 c 0,0.007 -0.004,0.0103 -0.0179,0.0119 -0.0243,0.003 -0.028,0.004 -0.0345,0.007 -0.0126,0.005 -0.0189,0.0148 -0.0189,0.0288 0,0.0195 0.0136,0.0319 0.0354,0.0319 0.0136,0 0.0245,-0.005 0.0366,-0.0158 0.001,0.0109 0.007,0.0158 0.0177,0.0158 0.003,0 0.006,-4.1e-4 0.0117,-0.002 z m -0.03,-0.0239 c 0,0.006 -0.002,0.009 -0.007,0.014 -0.007,0.006 -0.0154,0.01 -0.0255,0.01 -0.0134,0 -0.0212,-0.006 -0.0212,-0.0173 0,-0.0113 0.008,-0.0171 0.0259,-0.0197 0.0181,-0.002 0.0218,-0.003 0.0276,-0.006 z"
               style="font-style:normal;font-variant:normal;font-weight:normal;font-stretch:normal;font-size:0.20569536px;font-family:Helvetica;-inkscape-font-specification:Helvetica;fill:#ffffff;fill-opacity:1;stroke-width:0.15427147"
               id="path904" />
            <path
               d="m 107.96574,177.44751 h 0.0492 v -0.0169 h -0.11766 v 0.0169 h 0.0494 v 0.13309 h 0.0191 z"
               style="font-style:normal;font-variant:normal;font-weight:normal;font-stretch:normal;font-size:0.20569536px;font-family:Helvetica;-inkscape-font-specification:Helvetica;fill:#ffffff;fill-opacity:1;stroke-width:0.15427147"
               id="path906" />
          </g>
        </g>
        <g
           aria-label="МБОУ СОШ №149"
           style="font-style:normal;font-variant:normal;font-weight:bold;font-stretch:normal;font-size:3.79652691px;line-height:2;font-family:'Noto Sans Mono CJK KR';-inkscape-font-specification:'Noto Sans Mono CJK KR, Bold';font-variant-ligatures:normal;font-variant-caps:normal;font-variant-numeric:normal;font-feature-settings:normal;text-align:start;letter-spacing:0px;word-spacing:0px;writing-mode:lr-tb;text-anchor:start;fill:#35983a;fill-opacity:1;stroke:none;stroke-width:0.11864147"
           id="text952">
          <path
             d="m 17.700037,278.29879 h 1.513915 l 1.050471,2.4686 1.056651,-2.4686 h 1.510825 v 4.6128 h -1.124623 v -3.37387 l -1.062829,2.48715 h -0.753868 l -1.06283,-2.48715 v 3.37387 h -1.127712 z"
             style="font-style:normal;font-variant:normal;font-weight:bold;font-stretch:normal;font-size:6.32754517px;font-family:sans-serif;-inkscape-font-specification:'sans-serif Bold';fill:#ffffff;fill-opacity:0;stroke-width:0.11864147"
             id="path910" />
          <path
             d="m 25.890624,282.10211 q 0.373845,0 0.540684,-0.13903 0.179198,-0.15139 0.179198,-0.43873 0,-0.28116 -0.179198,-0.42946 -0.16375,-0.13903 -0.540684,-0.13903 H 25.19237 v 1.14625 z m 0.08651,0.80948 h -1.974269 v -4.6128 h 3.488183 v 0.89908 H 25.19237 v 0.85891 h 0.784764 q 0.874363,0 1.371792,0.36149 0.451085,0.3275 0.451085,1.069 0,0.73533 -0.451085,1.06283 -0.497429,0.36149 -1.371792,0.36149 z"
             style="font-style:normal;font-variant:normal;font-weight:bold;font-stretch:normal;font-size:6.32754517px;font-family:sans-serif;-inkscape-font-specification:'sans-serif Bold';fill:#ffffff;fill-opacity:0;stroke-width:0.11864147"
             id="path912" />
          <path
             d="m 30.929798,279.07737 q -0.543774,0 -0.843467,0.40165 -0.299693,0.40165 -0.299693,1.1308 0,0.72606 0.299693,1.12771 0.299693,0.40166 0.843467,0.40166 0.546863,0 0.846556,-0.40166 0.299693,-0.40165 0.299693,-1.12771 0,-0.72915 -0.299693,-1.1308 -0.299693,-0.40165 -0.846556,-0.40165 z m 0,-0.862 q 1.112264,0 1.742546,0.63646 0.630283,0.63646 0.630283,1.75799 0,1.11845 -0.630283,1.75491 -0.630282,0.63646 -1.742546,0.63646 -1.109174,0 -1.742547,-0.63646 -0.630283,-0.63646 -0.630283,-1.75491 0,-1.12153 0.630283,-1.75799 0.633373,-0.63646 1.742547,-0.63646 z"
             style="font-style:normal;font-variant:normal;font-weight:bold;font-stretch:normal;font-size:6.32754517px;font-family:sans-serif;-inkscape-font-specification:'sans-serif Bold';fill:#ffffff;fill-opacity:0;stroke-width:0.11864147"
             id="path914" />
          <path
             d="m 36.494207,282.14536 q -0.123585,0.26262 -0.305873,0.42946 -0.370754,0.33677 -1.421225,0.33677 h -0.216274 v -0.89908 h 0.3275 q 0.432547,0 0.534504,-0.21318 0.02472,-0.0464 0.04635,-0.0927 l -1.659127,-3.40785 h 1.242028 l 1.022665,2.10094 0.994858,-2.10094 h 1.248207 z"
             style="font-style:normal;font-variant:normal;font-weight:bold;font-stretch:normal;font-size:6.32754517px;font-family:sans-serif;-inkscape-font-specification:'sans-serif Bold';fill:#ffffff;fill-opacity:0;stroke-width:0.11864147"
             id="path916" />
          <path
             d="m 44.938142,282.65824 q -0.3275,0.16993 -0.682807,0.25644 -0.355306,0.0865 -0.741509,0.0865 -1.152429,0 -1.825966,-0.64264 -0.673538,-0.64573 -0.673538,-1.74873 0,-1.10608 0.673538,-1.74872 0.673537,-0.64573 1.825966,-0.64573 0.386203,0 0.741509,0.0865 0.355307,0.0865 0.682807,0.25643 v 0.9547 q -0.33059,-0.22555 -0.651911,-0.33059 -0.32132,-0.10505 -0.676627,-0.10505 -0.636462,0 -1.001037,0.40783 -0.364576,0.40783 -0.364576,1.12462 0,0.71371 0.364576,1.12154 0.364575,0.40783 1.001037,0.40783 0.355307,0 0.676627,-0.10505 0.321321,-0.10505 0.651911,-0.33059 z"
             style="font-style:normal;font-variant:normal;font-weight:bold;font-stretch:normal;font-size:6.32754517px;font-family:sans-serif;-inkscape-font-specification:'sans-serif Bold';fill:#ffffff;fill-opacity:0;stroke-width:0.11864147"
             id="path918" />
          <path
             d="m 48.033943,279.07737 q -0.543774,0 -0.843467,0.40165 -0.299693,0.40165 -0.299693,1.1308 0,0.72606 0.299693,1.12771 0.299693,0.40166 0.843467,0.40166 0.546863,0 0.846556,-0.40166 0.299694,-0.40165 0.299694,-1.12771 0,-0.72915 -0.299694,-1.1308 -0.299693,-0.40165 -0.846556,-0.40165 z m 0,-0.862 q 1.112264,0 1.742547,0.63646 0.630282,0.63646 0.630282,1.75799 0,1.11845 -0.630282,1.75491 -0.630283,0.63646 -1.742547,0.63646 -1.109174,0 -1.742547,-0.63646 -0.630283,-0.63646 -0.630283,-1.75491 0,-1.12153 0.630283,-1.75799 0.633373,-0.63646 1.742547,-0.63646 z"
             style="font-style:normal;font-variant:normal;font-weight:bold;font-stretch:normal;font-size:6.32754517px;font-family:sans-serif;-inkscape-font-specification:'sans-serif Bold';fill:#ffffff;fill-opacity:0;stroke-width:0.11864147"
             id="path920" />
          <path
             d="m 55.223493,282.01251 h 1.541721 v -3.71372 h 1.189505 v 4.6128 h -6.651956 v -4.6128 h 1.189505 v 3.71372 h 1.541721 v -3.71372 h 1.189504 z"
             style="font-style:normal;font-variant:normal;font-weight:bold;font-stretch:normal;font-size:6.32754517px;font-family:sans-serif;-inkscape-font-specification:'sans-serif Bold';fill:#ffffff;fill-opacity:0;stroke-width:0.11864147"
             id="path922" />
          <path
             d="m 67.331719,280.24834 q -0.09578,-0.17302 -0.271886,-0.17302 -0.176109,0 -0.271887,0.17302 -0.09578,0.16993 -0.09578,0.48816 0,0.31823 0.09578,0.49434 0.09578,0.17302 0.271887,0.17302 0.176108,0 0.271886,-0.17302 0.09578,-0.17611 0.09578,-0.49434 0,-0.31823 -0.09578,-0.48816 z m -6.006224,-1.94955 h 1.328537 l 1.677665,3.16377 v -2.10712 q 0,-0.61793 0.284245,-0.83729 0.284245,-0.21936 1.211132,-0.21936 v 0.6828 q -0.268797,0 -0.318231,0.0958 -0.04943,0.0958 -0.04943,0.27807 v 3.55615 h -1.328538 l -1.677664,-3.16377 v 2.10712 q 0,0.61792 -0.284245,0.83729 -0.284246,0.21936 -1.211132,0.21936 v -0.68281 q 0.268797,0 0.318231,-0.0958 0.04943,-0.0958 0.04943,-0.27807 z m 5.014456,1.61278 q 0.262618,-0.30278 0.722971,-0.30278 0.460354,0 0.722972,0.30278 0.262618,0.29969 0.262618,0.82493 0,0.52523 -0.262618,0.82802 -0.262618,0.30278 -0.722972,0.30278 -0.460353,0 -0.722971,-0.30278 -0.262618,-0.30279 -0.262618,-0.82802 0,-0.52524 0.262618,-0.82493 z m -0.262618,2.3821 h 1.971179 v 0.61792 h -1.971179 z"
             style="font-style:normal;font-variant:normal;font-weight:bold;font-stretch:normal;font-size:6.32754517px;font-family:sans-serif;-inkscape-font-specification:'sans-serif Bold';fill:#ffffff;fill-opacity:0;stroke-width:0.11864147"
             id="path924" />
          <path
             d="m 69.098983,282.08975 h 1.050471 v -2.98148 l -1.078278,0.22245 v -0.80948 l 1.072099,-0.22245 h 1.130801 v 3.79096 h 1.050472 v 0.82184 h -3.225565 z"
             style="font-style:normal;font-variant:normal;font-weight:bold;font-stretch:normal;font-size:6.32754517px;font-family:sans-serif;-inkscape-font-specification:'sans-serif Bold';fill:#ffffff;fill-opacity:0;stroke-width:0.11864147"
             id="path926" />
          <path
             d="m 75.086672,279.2782 -1.30382,1.93101 h 1.30382 z m -0.197736,-0.97941 h 1.322358 v 2.91042 h 0.65809 v 0.862 h -0.65809 v 0.84038 h -1.124622 v -0.84038 h -2.04533 v -1.01957 z"
             style="font-style:normal;font-variant:normal;font-weight:bold;font-stretch:normal;font-size:6.32754517px;font-family:sans-serif;-inkscape-font-specification:'sans-serif Bold';fill:#ffffff;fill-opacity:0;stroke-width:0.11864147"
             id="path928" />
          <path
             d="m 77.79009,282.80963 v -0.85273 q 0.284245,0.13285 0.543773,0.20082 0.259528,0.0649 0.512877,0.0649 0.531415,0 0.828019,-0.29351 0.296604,-0.2966 0.349127,-0.87745 -0.210094,0.15448 -0.447995,0.23172 -0.237901,0.0772 -0.515967,0.0772 -0.707523,0 -1.14316,-0.41092 -0.432547,-0.41401 -0.432547,-1.08755 0,-0.74459 0.481981,-1.19259 0.485071,-0.448 1.297641,-0.448 0.90217,0 1.396509,0.60866 0.49434,0.60866 0.49434,1.72092 0,1.14316 -0.57776,1.79816 -0.577759,0.65191 -1.584975,0.65191 -0.324411,0 -0.621014,-0.0494 -0.296604,-0.0463 -0.580849,-0.14213 z m 1.46757,-2.22143 q 0.312052,0 0.469623,-0.20083 0.15757,-0.20392 0.15757,-0.60866 0,-0.40165 -0.15757,-0.60556 -0.157571,-0.20392 -0.469623,-0.20392 -0.312052,0 -0.469622,0.20392 -0.157571,0.20391 -0.157571,0.60556 0,0.40474 0.157571,0.60866 0.15757,0.20083 0.469622,0.20083 z"
             style="font-style:normal;font-variant:normal;font-weight:bold;font-stretch:normal;font-size:6.32754517px;font-family:sans-serif;-inkscape-font-specification:'sans-serif Bold';fill:#ffffff;fill-opacity:0;stroke-width:0.11864147"
             id="path930" />
        </g>
      </g>
    </g>
  </g>
</svg>
