<?xml version="1.0" encoding="UTF-8" standalone="no"?>
<!-- Generator: Adobe Illustrator 19.1.0, SVG Export Plug-In . SVG Version: 6.00 Build 0)  -->

<svg
   xmlns:dc="http://purl.org/dc/elements/1.1/"
   xmlns:cc="http://creativecommons.org/ns#"
   xmlns:rdf="http://www.w3.org/1999/02/22-rdf-syntax-ns#"
   xmlns:svg="http://www.w3.org/2000/svg"
   xmlns="http://www.w3.org/2000/svg"
   xmlns:sodipodi="http://sodipodi.sourceforge.net/DTD/sodipodi-0.dtd"
   xmlns:inkscape="http://www.inkscape.org/namespaces/inkscape"
   version="1.1"
   id="Capa_1"
   x="0px"
   y="0px"
   viewBox="0 0 482.5 482.5"
   style="enable-background:new 0 0 482.5 482.5;"
   xml:space="preserve"
   sodipodi:docname="print.svg"
   inkscape:version="0.92.4 (unknown)"><metadata
   id="metadata49"><rdf:RDF><cc:Work
       rdf:about=""><dc:format>image/svg+xml</dc:format><dc:type
         rdf:resource="http://purl.org/dc/dcmitype/StillImage" /></cc:Work></rdf:RDF></metadata><defs
   id="defs47" /><sodipodi:namedview
   pagecolor="#ffffff"
   bordercolor="#666666"
   borderopacity="1"
   objecttolerance="10"
   gridtolerance="10"
   guidetolerance="10"
   inkscape:pageopacity="0"
   inkscape:pageshadow="2"
   inkscape:window-width="1366"
   inkscape:window-height="702"
   id="namedview45"
   showgrid="false"
   inkscape:zoom="0.48911917"
   inkscape:cx="241.25"
   inkscape:cy="241.25"
   inkscape:window-x="0"
   inkscape:window-y="0"
   inkscape:window-maximized="1"
   inkscape:current-layer="Capa_1" />
<g
   id="g12">
	<g
   id="g10">
		<path
   d="M399.25,98.9h-12.4V71.3c0-39.3-32-71.3-71.3-71.3h-149.7c-39.3,0-71.3,32-71.3,71.3v27.6h-11.3    c-39.3,0-71.3,32-71.3,71.3v115c0,39.3,32,71.3,71.3,71.3h11.2v90.4c0,19.6,16,35.6,35.6,35.6h221.1c19.6,0,35.6-16,35.6-35.6    v-90.4h12.5c39.3,0,71.3-32,71.3-71.3v-115C470.55,130.9,438.55,98.9,399.25,98.9z M121.45,71.3c0-24.4,19.9-44.3,44.3-44.3h149.6    c24.4,0,44.3,19.9,44.3,44.3v27.6h-238.2V71.3z M359.75,447.1c0,4.7-3.9,8.6-8.6,8.6h-221.1c-4.7,0-8.6-3.9-8.6-8.6V298h238.3    V447.1z M443.55,285.3c0,24.4-19.9,44.3-44.3,44.3h-12.4V298h17.8c7.5,0,13.5-6,13.5-13.5s-6-13.5-13.5-13.5h-330    c-7.5,0-13.5,6-13.5,13.5s6,13.5,13.5,13.5h19.9v31.6h-11.3c-24.4,0-44.3-19.9-44.3-44.3v-115c0-24.4,19.9-44.3,44.3-44.3h316    c24.4,0,44.3,19.9,44.3,44.3V285.3z"
   id="path2"
   style="fill:#ffffff;fill-opacity:1" />
		<path
   d="M154.15,364.4h171.9c7.5,0,13.5-6,13.5-13.5s-6-13.5-13.5-13.5h-171.9c-7.5,0-13.5,6-13.5,13.5S146.75,364.4,154.15,364.4    z"
   id="path4"
   style="fill:#ffffff;fill-opacity:1" />
		<path
   d="M327.15,392.6h-172c-7.5,0-13.5,6-13.5,13.5s6,13.5,13.5,13.5h171.9c7.5,0,13.5-6,13.5-13.5S334.55,392.6,327.15,392.6z"
   id="path6"
   style="fill:#ffffff;fill-opacity:1" />
		<path
   d="M398.95,151.9h-27.4c-7.5,0-13.5,6-13.5,13.5s6,13.5,13.5,13.5h27.4c7.5,0,13.5-6,13.5-13.5S406.45,151.9,398.95,151.9z"
   id="path8"
   style="fill:#ffffff;fill-opacity:1" />
	</g>
</g>
<g
   id="g14">
</g>
<g
   id="g16">
</g>
<g
   id="g18">
</g>
<g
   id="g20">
</g>
<g
   id="g22">
</g>
<g
   id="g24">
</g>
<g
   id="g26">
</g>
<g
   id="g28">
</g>
<g
   id="g30">
</g>
<g
   id="g32">
</g>
<g
   id="g34">
</g>
<g
   id="g36">
</g>
<g
   id="g38">
</g>
<g
   id="g40">
</g>
<g
   id="g42">
</g>
</svg>